<svg version="1.1" xmlns="http://www.w3.org/2000/svg" width="800" height="800" fill="currentColor">
    <path
        d="M0 0 C-2.78480056 1.85653371 -5.52977257 3.14619404 -8.59570312 4.45996094 C-58.5152576 25.86933284 -99.4995706 59.65420858 -120.078125 110.8984375 C-123.50659918 119.77685893 -126.27456781 128.88602384 -129 138 C-129.38800781 139.24652344 -129.77601563 140.49304688 -130.17578125 141.77734375 C-132.71533463 151.70687712 -130.88731173 161.22537653 -126.375 170.25 C-119.45835834 178.25874297 -109.2594516 182.24526349 -99 184 C-75.97909241 185.27915466 -55.87235667 182.88909722 -35.125 172.625 C-29.77206627 170.19833671 -24.47657553 169.99593487 -18.8359375 171.625 C-11.70821884 174.70725672 -6.87210109 180.60209456 -3.5625 187.5 C0.54892659 199.01908312 -1.46026527 212.90602714 -6.25390625 223.8671875 C-12.89133304 236.9250135 -23.74275738 246.90550313 -37.625 251.9375 C-39.07452686 252.32614126 -40.53380888 252.67991602 -42 253 C-42.7940625 253.20109375 -43.588125 253.4021875 -44.40625 253.609375 C-74.38765617 259.98473148 -107.51926502 252.10915809 -135 240 C-135.97235596 239.57944336 -135.97235596 239.57944336 -136.96435547 239.15039062 C-155.32682863 231.15404326 -172.23652548 220.54838811 -188.1418457 208.41308594 C-189.34836678 207.4955529 -190.57301203 206.60120888 -191.81713867 205.73535156 C-194.65307136 203.65262854 -195.89641277 202.45297465 -196.69140625 198.9765625 C-194.78384348 149.37993061 -166.65146225 98.45327283 -133 63 C-132.51225098 62.47970215 -132.02450195 61.9594043 -131.52197266 61.42333984 C-119.00139094 48.14439925 -104.94775304 36.93552933 -89 28 C-88.27425781 27.58540527 -87.54851562 27.17081055 -86.80078125 26.74365234 C-64.38302937 14.03995486 -40.06476161 5.81486995 -14.75 1.1875 C-14.07066406 1.0632666 -13.39132812 0.9390332 -12.69140625 0.81103516 C-8.42252367 0.08996891 -4.32422997 -0.10642535 0 0 Z "
        transform="translate(355,86)" />
    <path
        d="M0 0 C3.00365886 2.80776807 5.13660656 5.60609733 7.25 9.125 C10.78108302 14.78224577 14.7009044 19.90896574 19 25 C19.66515625 25.81210937 20.3303125 26.62421875 21.015625 27.4609375 C25.1580723 32.32447748 29.61685021 36.60183666 34.5625 40.625 C35.06088379 41.04386475 35.55926758 41.46272949 36.07275391 41.89428711 C42.66066319 47.06226843 50.49655369 50.38318615 58 54 C58.06731323 55.78446533 58.06731323 55.78446533 58.13598633 57.60498047 C58.30748874 62.05983318 58.49612956 66.51382949 58.68969727 70.96777344 C58.77080151 72.88783177 58.84738698 74.80808694 58.91918945 76.72851562 C59.0237961 79.5045597 59.14516588 82.27946648 59.26953125 85.0546875 C59.29779495 85.8998996 59.32605865 86.74511169 59.35517883 87.61593628 C60.08646682 102.67878552 66.61413993 113.43351627 77 124 C77.56589844 124.57878906 78.13179688 125.15757812 78.71484375 125.75390625 C86.01986951 132.59455384 95.02894446 136.66763148 105 137 C104.49210938 136.61070312 103.98421875 136.22140625 103.4609375 135.8203125 C94.01060081 128.13970178 89.37853872 118.75188505 87.68359375 106.76171875 C87.13365791 97.05801215 90.84148358 87.35600572 97 80 C99.70244341 81.03328719 102.06510275 82.04231679 104.5 83.625 C109.97762721 85.77692497 115.20165152 85.86690994 121 85 C124.95072788 83.16759003 127.68682486 80.41784852 130.6171875 77.25390625 C136.13569476 71.3261317 142.73779631 66.80030823 150.90234375 65.55859375 C153.65573135 65.50066834 156.26435488 65.70336378 159 66 C159.7940625 65.9690625 160.588125 65.938125 161.40625 65.90625 C164.28296292 66.02447108 165.61131334 66.34595546 168 68 C170.80737827 72.49180524 172.90996707 77.20213429 175.07226562 82.02783203 C181.10559317 94.85341621 192.48944979 102.8863737 203.80078125 110.73828125 C215.98273445 119.35043131 223.58883949 131.45688264 227 146 C227.2176321 148.98650899 227.19166487 151.94527279 227.125 154.9375 C227.11597656 155.71673828 227.10695313 156.49597656 227.09765625 157.29882812 C227.07433691 159.19935447 227.03847586 161.09972008 227 163 C225.28393741 159.96388926 224.34047204 156.86559757 223.40307617 153.51757812 C219.11671753 138.42052331 210.97483575 127.08702678 197.49609375 118.80859375 C189.95142499 114.90559751 181.94502927 111.98069945 174 109 C175.39105808 110.39105808 176.95687804 111.48502414 178.53515625 112.66015625 C196.95266392 126.46149011 208.23112533 138.96678699 212.58203125 162.09375 C214.67823337 181.68442404 213.06793251 201.76618318 209 221 C208.67 221 208.34 221 208 221 C207.98598145 219.87525269 207.98598145 219.87525269 207.97167969 218.7277832 C207.90366651 193.79880832 207.90366651 193.79880832 197 172 C196.52949219 171.39027344 196.05898438 170.78054688 195.57421875 170.15234375 C193.1711423 167.12528306 193.1711423 167.12528306 190 165 C190.34933594 165.88042969 190.69867187 166.76085937 191.05859375 167.66796875 C191.51363281 168.82941406 191.96867188 169.99085938 192.4375 171.1875 C192.88996094 172.33605469 193.34242188 173.48460937 193.80859375 174.66796875 C198.12816198 186.74859729 195.71230619 198.69950347 193 210.875 C188.16874707 234.09162279 189.8968031 253.12325187 196 276 C196.67626065 278.66438463 197.33858885 281.33188027 198 284 C193.10001049 279.85482274 188.35657155 275.58997615 183.6875 271.1875 C179.49308359 267.24292872 175.28023368 263.34441708 170.9375 259.5625 C144.7183627 235.99571324 125.85652725 207.28779431 121 172 C117.32467428 178.63898359 117.50093439 184.97095954 117.5625 192.4375 C117.57007324 193.72213135 117.57764648 195.0067627 117.58544922 196.33032227 C117.92266606 216.24703782 122.34624542 234.98797557 128 254 C127.34 254 126.68 254 126 254 C125.05198445 252.6318412 124.11402814 251.25581744 123.22265625 249.85009766 C120.87451684 246.29694261 118.14117589 243.02499906 115.5 239.6875 C103.26360819 224.06062793 92.42287867 207.71870059 82.04296875 190.8125 C78.17890891 184.58656753 73.89658455 178.86249023 69.33203125 173.140625 C65.19031764 167.56283984 62.44703228 163.41664654 62.75 156.1875 C62.78609375 155.06730469 62.8221875 153.94710937 62.859375 152.79296875 C62.90578125 151.87128906 62.9521875 150.94960938 63 150 C63 149.34 63 148.68 63 148 C59.29037012 154.32256363 58.35086962 159.03158056 58.5 166.3125 C58.51281006 167.27526855 58.52562012 168.23803711 58.53881836 169.22998047 C59.10424334 189.63561417 65.90272491 209.54673464 75.03125 227.6640625 C75.3509375 228.43492187 75.670625 229.20578125 76 230 C75.67 230.66 75.34 231.32 75 232 C69.17523921 225.71314963 63.58172122 219.34029207 58.203125 212.6640625 C56.10716026 210.12958032 53.92647487 207.72060606 51.6875 205.3125 C32.98653613 184.65332002 22.94179719 161.98993019 14.0703125 135.83447266 C13.70164062 134.75085449 13.33296875 133.66723633 12.953125 132.55078125 C12.62473633 131.57794189 12.29634766 130.60510254 11.95800781 129.6027832 C11.10934703 127.29708171 10.15104554 125.16733297 9 123 C8.50439095 144.54565053 8.52967425 163.37304905 17.14453125 183.55859375 C17.42683594 184.36425781 17.70914063 185.16992188 18 186 C17.67 186.66 17.34 187.32 17 188 C-5.68905142 163.69938979 -24.2737715 139.43475555 -25.5625 105.125 C-25.60568359 104.05507813 -25.64886719 102.98515625 -25.69335938 101.8828125 C-25.79892817 99.25532246 -25.90103791 96.62774578 -26 94 C-26.64836042 95.74906531 -27.29358784 97.49929219 -27.9375 99.25 C-28.29714844 100.22453125 -28.65679687 101.1990625 -29.02734375 102.203125 C-30.42188686 106.21313652 -31.13508438 109.73626259 -31.31640625 113.984375 C-31.35830078 114.91894531 -31.40019531 115.85351562 -31.44335938 116.81640625 C-31.48267578 117.78449219 -31.52199219 118.75257813 -31.5625 119.75 C-31.60568359 120.73355469 -31.64886719 121.71710938 -31.69335938 122.73046875 C-31.79922052 125.15351275 -31.90130171 127.5766554 -32 130 C-34.66712956 126.55976234 -36.61036112 123.00077596 -38.4375 119.0625 C-38.74389404 118.4022583 -39.05028809 117.7420166 -39.3659668 117.06176758 C-46.76016739 100.73429317 -53.28147383 76.55220879 -47.28515625 58.89501953 C-45.24665945 55.21938233 -42.15478474 52.69490358 -39 50 C-37.22825924 48.02236887 -35.50811433 46.03964752 -33.8125 44 C-33.35746094 43.46673096 -32.90242188 42.93346191 -32.43359375 42.3840332 C-27.81904311 36.93111985 -23.63533727 31.17661447 -19.43432617 25.40307617 C-13.15167113 16.78268903 -6.59586542 8.38193004 0 0 Z "
        transform="translate(382,398)" />
    <path
        d="M0 0 C26.64894891 22.24783462 40.93224381 52.75633068 49.9375 85.6875 C50.23221191 86.76185303 50.52692383 87.83620605 50.83056641 88.94311523 C55.23397662 105.72081457 55.23397662 105.72081457 52.98657227 109.87182617 C51.625 111.5 51.625 111.5 49 114 C46.3196477 119.36070461 47.38004798 126.36127785 49.09375 131.90625 C50.60074238 136.31958482 52.29993693 140.65828665 54 145 C55.00035116 147.60279301 55.99264123 150.20823746 56.97436523 152.81811523 C57.60688337 154.49729455 58.2493355 156.17277193 58.90258789 157.84399414 C59.19125732 158.60446045 59.47992676 159.36492676 59.77734375 160.1484375 C60.16780884 161.15656494 60.16780884 161.15656494 60.56616211 162.18505859 C61 164 61 164 60 167 C51.95030679 171.76756874 43.33636216 174.38901509 34 174 C36.68232661 172.21178226 39.30288961 170.79857396 42.1875 169.375 C43.08855469 168.92898438 43.98960937 168.48296875 44.91796875 168.0234375 C45.94857422 167.51683594 45.94857422 167.51683594 47 167 C44.89958625 159.46322125 42.27596612 152.17994226 39.51342773 144.8659668 C37.02189413 138.22710338 34.70926574 132.06385817 34.8125 124.875 C34.81894531 123.88242187 34.82539062 122.88984375 34.83203125 121.8671875 C34.99109024 119.15208761 35.39387112 116.64757094 36 114 C-6.58540105 106.63198004 -58.22225098 107.73329679 -95 133 C-103.67814683 139.37021379 -111.74807965 146.5115353 -119.640625 153.8203125 C-121.64590528 155.67287276 -123.67946885 157.47146683 -125.75 159.25 C-130.45391428 163.33190909 -134.96396682 167.62196743 -139.50634766 171.88134766 C-143.24447094 175.38041035 -147.01862867 178.81490947 -150.90234375 182.15234375 C-154.44881039 185.27614025 -157.8946215 188.51073373 -161.34619141 191.73876953 C-164.46238343 194.63854615 -167.63576356 197.38475868 -171 200 C-181.65295557 195.28260714 -190.50067328 183.62148165 -198.625 175.4375 C-199.8317946 174.22567574 -201.03882439 173.01408566 -202.24609375 171.80273438 C-205.16677407 168.87117529 -208.08427747 165.93648979 -211 163 C-213.79890302 166.45397314 -216.29910937 169.93717593 -218.6875 173.6875 C-226.99305977 186.13821988 -236.7347666 193.82317774 -249 202 C-249.99 202 -250.98 202 -252 202 C-242.67808963 212.51879763 -221.68046201 218.14835532 -208.01171875 219.23828125 C-187.88979348 219.68753693 -173.51590271 212.79384237 -159 199 C-157.77597521 197.95229611 -156.54697704 196.91036784 -155.3125 195.875 C-150.46731092 191.67123106 -146.0292454 187.05103046 -141.51586914 182.4987793 C-136.31614144 177.27153634 -131.15317861 172.10211907 -125 168 C-126.44638184 171.12628021 -128.19435711 173.74936313 -130.2734375 176.4921875 C-130.92747559 177.35553711 -131.58151367 178.21888672 -132.25537109 179.10839844 C-132.95484863 180.02137695 -133.65432617 180.93435547 -134.375 181.875 C-135.09381348 182.81375977 -135.81262695 183.75251953 -136.55322266 184.71972656 C-150.43712361 202.73577763 -165.69911759 222.44514829 -189 228 C-201.33078359 229.5455326 -213.22530332 227.64893682 -225 224 C-225.64469238 223.80164551 -226.28938477 223.60329102 -226.95361328 223.39892578 C-241.14182644 218.87582562 -256.06998506 211.95728991 -268 203 C-268 202.34 -268 201.68 -268 201 C-265.54880164 199.35483987 -263.09631309 197.8203881 -260.5625 196.3125 C-244.39951726 186.42349333 -234.6504698 175.76051659 -226 159 C-225.6272998 158.28585937 -225.25459961 157.57171875 -224.87060547 156.8359375 C-217.7756409 143.08347469 -212.81158776 128.68230476 -208 114 C-205.69 114 -203.38 114 -201 114 C-201 116.31 -201 118.62 -201 121 C-200.31413818 120.83765869 -199.62827637 120.67531738 -198.92163086 120.50805664 C-189.68554579 118.64040142 -179.18383875 117.09678502 -170.82672119 122.37176514 C-159.90026702 130.68697629 -150.818601 141.54965298 -142 152 C-145.23639799 158.74293011 -151.21055787 163.26841337 -156.80078125 168.08984375 C-160.91970352 171.66738014 -164.95239224 175.34222332 -169 179 C-174.10294671 176.73226162 -177.68030154 172.86248719 -181.6875 169.0625 C-182.47189453 168.33353516 -183.25628906 167.60457031 -184.06445312 166.85351562 C-184.81017578 166.15033203 -185.55589844 165.44714844 -186.32421875 164.72265625 C-187.00572998 164.08078369 -187.68724121 163.43891113 -188.3894043 162.77758789 C-190 161 -190 161 -191 158 C-190.48050781 157.55269531 -189.96101563 157.10539063 -189.42578125 156.64453125 C-185.47320346 153.21798969 -181.64172918 149.75553321 -178 146 C-177.01 146.33 -176.02 146.66 -175 147 C-174.67 147.99 -174.34 148.98 -174 150 C-175.52994792 151.20442708 -177.05989583 152.40885417 -178.58984375 153.61328125 C-180.27155077 155.05683091 -180.27155077 155.05683091 -181 158 C-180.15115234 158.72316406 -180.15115234 158.72316406 -179.28515625 159.4609375 C-178.55167969 160.09257812 -177.81820312 160.72421875 -177.0625 161.375 C-176.33160156 162.00148438 -175.60070312 162.62796875 -174.84765625 163.2734375 C-173 165 -173 165 -172 167 C-169.86414414 167.2348266 -169.86414414 167.2348266 -168.4140625 165.42578125 C-167.52847656 164.37970703 -167.52847656 164.37970703 -166.625 163.3125 C-166.00753906 162.58675781 -165.39007813 161.86101562 -164.75390625 161.11328125 C-162.80538537 158.76550888 -160.8784002 156.40435225 -159 154 C-162.69265665 149.45619909 -166.45137655 145.67761045 -171 142 C-172.71010827 140.37068425 -174.35371158 138.69470867 -176 137 C-178.33682839 138.99604091 -180.67034044 140.99561366 -183 143 C-183.68320312 143.5878125 -184.36640625 144.175625 -185.0703125 144.78125 C-188.85647838 148.0635535 -192.50421614 151.40433661 -196 155 C-197 156 -198 157 -199 158 C-197.40584497 161.91209308 -194.86106668 164.37218086 -191.875 167.3125 C-191.38290039 167.7981543 -190.89080078 168.28380859 -190.38378906 168.78417969 C-186.9847924 172.11241 -183.47670935 175.27658892 -179.859375 178.36328125 C-176.75863008 181.09271848 -173.87902091 184.04000663 -171 187 C-168.08165783 185.68516427 -166.05079071 184.28366724 -163.828125 181.98828125 C-163.25070557 181.39917969 -162.67328613 180.81007813 -162.07836914 180.203125 C-161.47500732 179.57921875 -160.87164551 178.9553125 -160.25 178.3125 C-156.03775597 174.0275103 -151.83290839 169.8473998 -147.24609375 165.9609375 C-143.96416174 163.09566817 -140.80225821 160.10538851 -137.625 157.125 C-131.81026362 151.68053828 -125.97807928 146.26575912 -120 141 C-119.4652002 140.52820313 -118.93040039 140.05640625 -118.37939453 139.5703125 C-98.13201883 121.76843573 -76.82665922 108.76316574 -50 104 C-49.21689453 103.84901855 -48.43378906 103.69803711 -47.62695312 103.54248047 C-32.29283898 100.67891806 -16.85761098 100.68286783 -1.3125 100.625 C0.26498016 100.61321716 0.26498016 100.61321716 1.87432861 100.60119629 C13.27562897 100.53498587 24.03152426 100.51538233 35 104 C33.63720839 76.28990393 19.96707418 44.82688529 2 24 C0.75863281 22.51886719 0.75863281 22.51886719 -0.5078125 21.0078125 C-17.06624493 1.75901739 -38.70006659 -10.07152204 -64 -13 C-94.39572943 -15.01910221 -122.98057238 -10.29377503 -148 8 C-152.09492887 10.97415395 -155.43242606 12.65165024 -160.375 13.75 C-161.43460937 13.99234375 -162.49421875 14.2346875 -163.5859375 14.484375 C-164.38257813 14.65453125 -165.17921875 14.8246875 -166 15 C-126.25142264 -32.69829284 -48.35933195 -39.57355269 0 0 Z "
        transform="translate(483,235)" />
    <path
        d="M0 0 C25.66698326 3.02578258 54.61010348 13.62289551 74 31 C74.82757812 31.70898438 75.65515625 32.41796875 76.5078125 33.1484375 C104.51273449 57.55639704 120.01418598 93.08727318 127.54345703 128.86035156 C127.91432488 130.59847233 128.32440504 132.32819238 128.74609375 134.0546875 C129.34755204 136.71769591 129.72117632 139.28235145 130 142 C130.07718262 142.74668945 130.15436523 143.49337891 130.23388672 144.26269531 C131.60804675 159.48013773 131.60804675 159.48013773 128.22265625 164.78515625 C125.60520967 166.91899033 122.992172 168.4380242 120 170 C118.56914063 170.94939453 118.56914063 170.94939453 117.109375 171.91796875 C103.18508899 181.14727114 87.78261013 187.56546028 71.85693359 192.41748047 C70.15598132 192.95106871 68.4766711 193.55241597 66.80078125 194.16015625 C64.03363849 194.98991314 61.86819808 195.16871753 59 195 C58.79246094 193.87207031 58.58492187 192.74414062 58.37109375 191.58203125 C55.33996409 175.8357273 50.99724936 160.27741269 43.84765625 145.86328125 C43 144 43 144 43 142 C44.16015625 141.84144531 45.3203125 141.68289063 46.515625 141.51953125 C55.93331103 140.14773916 64.47423489 138.46396192 73 134 C73.69609375 133.64292969 74.3921875 133.28585937 75.109375 132.91796875 C80.47616184 129.67266816 83.33103373 124.9754953 85 119 C88.08555483 94.05000133 77.75962643 69.00188728 63.41015625 49.08984375 C59.24217408 43.74645007 54.75647417 38.82299828 50 34 C49.17113281 33.15824219 48.34226562 32.31648438 47.48828125 31.44921875 C34.88051908 19.34345017 19.52582967 10.78035959 4 3 C3.18273437 2.59007812 2.36546875 2.18015625 1.5234375 1.7578125 C1.02070313 1.50773438 0.51796875 1.25765625 0 1 C0 0.67 0 0.34 0 0 Z "
        transform="translate(488,132)" />
    <path
        d="M0 0 C2.97216903 1.34801309 5.92481442 2.7171655 8.84960938 4.16479492 C34.2532995 16.7038717 61.08368125 20.97655692 89.1953125 22.44921875 C85.9138008 28.8479165 82.75404533 34.50719741 77.7578125 39.69921875 C77.27538086 40.20243652 76.79294922 40.7056543 76.29589844 41.22412109 C74.93553815 42.63876806 73.56576831 44.04434972 72.1953125 45.44921875 C71.62167969 46.09632813 71.04804688 46.7434375 70.45703125 47.41015625 C49.73951489 70.21548434 13.56015289 78.6632996 -15.8046875 80.44921875 C-38.98880838 81.52248296 -60.74038988 78.60521939 -81.8046875 68.44921875 C-78.80940312 67.45079062 -77.72585548 67.43757451 -74.71875 67.86328125 C-42.62262457 71.86396812 -10.07776252 61.82604601 15.4453125 42.19921875 C19.64800764 38.83918254 23.44781474 35.29800024 27.1953125 31.44921875 C27.8553125 31.44921875 28.5153125 31.44921875 29.1953125 31.44921875 C29.1953125 30.78921875 29.1953125 30.12921875 29.1953125 29.44921875 C27.9371875 29.84109375 26.6790625 30.23296875 25.3828125 30.63671875 C20.17967707 32.19543264 14.94455665 33.61820066 9.6953125 35.01171875 C8.91309326 35.22143311 8.13087402 35.43114746 7.32495117 35.6472168 C4.95363729 36.27166197 2.57765848 36.8683246 0.1953125 37.44921875 C-0.58602051 37.64193359 -1.36735352 37.83464844 -2.17236328 38.03320312 C-29.24875165 44.12661902 -59.77179231 37.7942662 -83.8046875 24.44921875 C-81.08696098 23.09035549 -79.01520531 23.38815778 -75.9765625 23.45703125 C-49.17803675 23.89041096 -25.48221002 19.79157231 -5.15625 0.7578125 C-2.8046875 -0.55078125 -2.8046875 -0.55078125 0 0 Z "
        transform="translate(218.8046875,461.55078125)" />
    <path
        d="M0 0 C0.33 0 0.66 0 1 0 C1.3247654 14.70465566 0.33670184 24.76652018 -8.1875 37.1875 C-18.12864326 47.12864326 -31.21526372 50.2559397 -44.84765625 50.39819336 C-51.64776927 50.2957043 -57.8255005 48.81722723 -64.31494141 46.86669922 C-69.55185865 45.29323484 -74.54770643 44.412918 -80 44 C-81.12664062 43.90976562 -82.25328125 43.81953125 -83.4140625 43.7265625 C-103.16561012 43.10181768 -122.67377534 53.91953401 -137 67 C-143.435748 74.11319516 -147.23643922 82.26230634 -151 91 C-151.65520898 92.3390009 -152.31678349 93.67507079 -153 95 C-155.11213604 91.50429137 -155.37857183 88.47657914 -155.6328125 84.43359375 C-155.71660156 83.14259766 -155.80039062 81.85160156 -155.88671875 80.52148438 C-155.92587402 79.84947998 -155.9650293 79.17747559 -156.00537109 78.48510742 C-156.12322463 76.46788777 -156.25376669 74.45182165 -156.38671875 72.43554688 C-156.6247904 68.62451104 -156.82559157 64.81444803 -157 61 C-157.050354 59.93023926 -157.10070801 58.86047852 -157.15258789 57.75830078 C-157.36885546 49.67572392 -155.32286425 46.04870938 -150 40 C-149.20078125 39.07960938 -148.4015625 38.15921875 -147.578125 37.2109375 C-140.90035504 30.03924964 -133.88113935 25.13802537 -125 21 C-124.37778564 20.70794678 -123.75557129 20.41589355 -123.11450195 20.11499023 C-116.40105896 17.40033815 -109.66629333 17.78847737 -102.55636597 18.00274658 C-90.46285417 18.34379159 -79.53785531 18.03751259 -68 14 C-65.67308944 13.30851518 -63.33771998 12.65444368 -61 12 C-60.62488281 12.65226562 -60.24976563 13.30453125 -59.86328125 13.9765625 C-54.39465394 23.31593106 -48.78671028 31.02268495 -38.109375 34.640625 C-30.98237389 35.85485482 -23.33621689 36.47001365 -17 32.5625 C-7.06081729 24.64796562 -3.04978667 11.92189336 0 0 Z "
        transform="translate(608,404)" />
    <path
        d="M0 0 C4.67323643 3.48344498 7.36184767 6.72539805 9.8125 12.0625 C10.11091797 12.67416016 10.40933594 13.28582031 10.71679688 13.91601562 C16.25596839 25.4820058 16.22494242 42.78062788 12.375 54.9375 C6.74886152 68.3169742 -1.14161692 77.71955343 -14.28125 84.109375 C-18.27187407 85.73632174 -21.70993772 86.32175467 -26 86 C-23.24272249 83.83446698 -20.46243602 82.14931435 -17.375 80.5 C-4.41270057 72.73791509 3.33408503 59.39992498 7 45 C9.90700699 31.01002884 8.87308796 16.53801593 2 4 C1.32867543 2.66900581 0.66076049 1.3362701 0 0 Z "
        transform="translate(351,258)" />
    <path
        d="M0 0 C7.63064658 0.39140901 14.3057021 1.7089839 21.5 4.25 C22.86257935 4.71708374 22.86257935 4.71708374 24.25268555 5.19360352 C30.68369055 7.43550493 36.92238662 9.91137681 43 13 C41.1558417 17.71620811 38.14964507 18.96147982 33.71484375 21.00390625 C28.54489638 22.90079342 24.62094866 23.08763236 19.49609375 20.9609375 C13.03515851 17.42961717 8.56199921 12.69724325 4 7 C3.175 6.030625 2.35 5.06125 1.5 4.0625 C0 2 0 2 0 0 Z "
        transform="translate(452,357)" />
</svg>